<svg xmlns="http://www.w3.org/2000/svg" width="13pt" height="13pt" viewBox="0 0 13 13"><path d="M10.79 1.43a3.027 3.027 0 00-4.29 0L1.965 5.965c-.145.129-.145.355 0 .504.148.129.36.129.504 0l4.535-4.535c.879-.88 2.406-.88 3.281 0 .91.91.91 2.39 0 3.3l-6.32 6.383c-.535.54-1.48.54-2.031 0a1.431 1.431 0 010-2.012l6.078-6.144c.195-.211.55-.211.761 0a.519.519 0 010 .746l-5.816 5.902c-.129.114-.129.371 0 .5.129.133.36.133.504 0l5.816-5.898a1.252 1.252 0 000-1.77c-.468-.472-1.297-.472-1.77 0L1.43 9.082a2.17 2.17 0 000 3.04 2.13 2.13 0 003.04 0l6.32-6.388a3.046 3.046 0 000-4.304zm0 0" fill="#292929" id="surface1"/></svg>