<svg xmlns="http://www.w3.org/2000/svg" width="55pt" height="55pt" viewBox="0 0 55 55"><path d="M53.555 30.438c0 .363-.157.707-.457.93 0 0-.016 0-.016.015l-4.965 3.55a.748.748 0 01-.457.141h-4.808l7.23 8.031c.77.848.941 2.012.488 3.032a2.786 2.786 0 01-2.578 1.683h-6.539v4.414c0 .864-.707 1.586-1.586 1.586H29.652a1.592 1.592 0 01-1.586-1.586V47.82H12.762a2.822 2.822 0 01-2.817-2.816v-3.926c0-.426.348-.785.774-.785.437 0 .785.36.785.785v3.926c0 .691.566 1.242 1.258 1.242h15.304v-4.164H16.453a.785.785 0 01-.785-.785V15.543c0-.332.203-.613.504-.738a.79.79 0 01.863.203l9.727 10.781h1.304v-4.762L13.688 5.09c-.536-.594-1.196-.406-1.383-.344-.188.078-.801.375-.801 1.18v31.82a.778.778 0 01-.785.785.775.775 0 01-.774-.785v-2.672H3.63a3.368 3.368 0 01-3.363-3.363v-2.547c0-1.852 1.511-3.375 3.363-3.375h6.316V5.926c0-1.18.707-2.219 1.809-2.625a2.771 2.771 0 013.098.738L28.066 18.7V2.105c0-.878.707-1.585 1.586-1.585h10.215c.88 0 1.586.707 1.586 1.585V25.79h6.207c.176 0 .332.063.457.156l4.965 3.551.016.016c.3.218.457.566.457.925zM1.825 31.71c0 .992.816 1.809 1.804 1.809h2.703v-6.16H3.629c-.988 0-1.805.816-1.805 1.804zm8.12 1.809v-6.16H7.887v6.16zm18.121 7.007v-5.453h-3.804a.771.771 0 01-.77-.77c0-.44.348-.784.77-.784h19.55v-6.16h-7.386a.788.788 0 01-.785-.786c0-.426.359-.785.785-.785h3.457v-2.703h-1.555a.785.785 0 01-.77-.79c0-.437.344-.784.77-.784h1.555v-5.2h-1.555a.771.771 0 01-.77-.769c0-.441.344-.79.77-.79h1.555V9.556h-1.555a.771.771 0 01-.77-.77c0-.441.344-.785.77-.785h1.555V2.105c0-.015 0-.015-.016-.015H29.652c-.015 0-.015 0-.015.015V25.79h3.457c.441 0 .785.36.785.785a.778.778 0 01-.785.785H17.238v6.16h3.692a.78.78 0 01.789.786c0 .425-.348.77-.79.77h-3.69v5.452zM17.238 17.57v8.22h7.418zm22.645 34.664v-5.988h-1.555a.782.782 0 01-.77-.785c0-.441.344-.785.77-.785h1.555v-5.188h-1.555a.782.782 0 01-.77-.785c0-.437.344-.785.77-.785h1.555v-2.844H29.637v17.16c0 .016 0 .016.015.016h10.215c.016 0 .016 0 .016-.016zm9.05-8.078l-7.48-8.297v10.387h6.54c.519 0 .94-.266 1.144-.738a1.242 1.242 0 00-.203-1.352zm-.55-11.328v-4.777l-.973-.692h-2.043v6.16h2.043zm3.332-2.39l-1.774-1.274v2.547zm0 0" fill-rule="evenodd"/></svg>