<svg xmlns="http://www.w3.org/2000/svg" width="61pt" height="55pt" viewBox="0 0 61 55"><path d="M8.938 17.523a.76.76 0 01.757.77v6.543h15.203V9.43H9.695v5.808c0 .434-.328.77-.758.77a.767.767 0 01-.761-.77V8.66c0-.426.351-.765.761-.765H25.66c.41 0 .762.34.762.765v16.93c0 .43-.352.765-.762.765H8.937a.766.766 0 01-.761-.765v-7.297c0-.418.351-.77.761-.77zm-.762 13.141c0-.414.351-.754.761-.754H25.66c.41 0 .762.34.762.754v9.477a3.24 3.24 0 011.168-.403c.09-2.07.61-4.093 1.52-5.945V5.289H5.487v45.688H27.12c-.715-.72-1.308-1.579-1.781-2.606H8.938a.776.776 0 01-.762-.766zm1.52 16.176h15.081c-.058-.203-.12-.399-.18-.613v-.016c0-.016 0-.031-.015-.047V43.25c0-.535.105-1.043.316-1.488V31.43H9.695zM33.081.508c.426 0 .758.351.758.762v26.91a16.174 16.174 0 011.957-1.196v-1.18c0-.308.187-.581.473-.69 1.25-.52 2.57-.891 3.91-1.087a.71.71 0 01.605.18.79.79 0 01.258.566v.68a13.72 13.72 0 012.996 0v-.68a.75.75 0 01.258-.566.69.69 0 01.594-.18c1.336.196 2.66.567 3.922 1.086a.74.74 0 01.457.692v1.18a14.928 14.928 0 015.82 5.257 15.254 15.254 0 012.402 7.496c1.692.246 3.008 1.735 3.008 3.512v2.79c0 .015 0 .03-.012.046v.078c0 .016-.015.031-.015.047v.016c-.93 3.492-2.63 5.53-5.547 6.652-2.813 1.074-6.828 1.285-12.39 1.285-5.548 0-9.563-.21-12.391-1.285-.305-.121-.579-.246-.848-.367H1.52a.766.766 0 01-.758-.77V33.715a.75.75 0 01.758-.75c.41 0 .761.336.761.75v17.262h1.7V4.523c0-.43.335-.765.761-.765h25.113c.426 0 .758.336.758.765v26.813a16.346 16.346 0 011.707-1.914V2.039H2.281v28.625c0 .43-.351.766-.761.766a.753.753 0 01-.758-.766V1.27c0-.41.332-.762.758-.762zM49.27 45.273h6.734v-4.812c0-4.86-2.602-9.356-6.734-11.758zm-20.204 0h18.715V26.324a17.45 17.45 0 00-2.25-.66v7.39c0 1.673-1.34 3.02-2.996 3.02-1.644 0-2.996-1.347-2.996-3.02v-7.39a17.04 17.04 0 00-2.23.66v14.871a.766.766 0 01-.762.754.754.754 0 01-.75-.754V28.703c-4.117 2.402-6.73 6.899-6.73 11.758zm11.977-12.218c0 .843.672 1.515 1.492 1.515s1.504-.672 1.504-1.515v-6.086c-1-.125-2.008-.125-2.996 0zM26.07 43.25v2.023h1.504V41.29a2.026 2.026 0 00-1.504 1.961zm32.672 3.543H26.328c.836 2.437 2.145 3.832 4.352 4.676 2.597.996 6.472 1.195 11.855 1.195 5.395 0 9.258-.2 11.856-1.195 2.203-.844 3.511-2.239 4.351-4.676zm.254-3.543a2.03 2.03 0 00-1.488-1.96v3.983h1.488zm0 0" fill-rule="evenodd" fill="#292929"/></svg>