<svg xmlns="http://www.w3.org/2000/svg" width="58pt" height="55pt" viewBox="0 0 58 55"><defs><clipPath id="clip1"><path d="M0 11.746h43.102V55H0zm0 0"/></clipPath></defs><g id="surface1"><path d="M48.96 5.598h-3.948v-1.73c0-.56-.621-.813-1.192-.813h-3.066C40.027 1.02 38.21.004 36.133.004c-2.055-.078-3.926 1.156-4.625 3.05h-3.012c-.57 0-1.14.255-1.14.813v1.73h-3.95c-2.34.024-4.254 1.833-4.363 4.118v29.14c0 2.235 2.078 3.864 4.363 3.864h25.555c2.285 0 4.363-1.63 4.363-3.864V9.715c-.11-2.285-2.023-4.094-4.363-4.117zM29.43 5.09h2.86c.495-.063.898-.434.983-.918.309-1.309 1.485-2.25 2.86-2.285 1.36.039 2.515.984 2.804 2.285.094.504.52.879 1.04.918h2.96v4.066H29.43zm21.816 33.765c0 1.118-1.144 1.829-2.285 1.829H23.406c-1.144 0-2.285-.711-2.285-1.829V9.715c.106-1.164 1.09-2.063 2.285-2.082h3.95v2.59c.054.57.558.996 1.14.968H43.82a1.134 1.134 0 001.192-.968v-2.59h3.949c1.195.02 2.18.918 2.285 2.082zm0 0"/><path d="M32.184 22.734a1.052 1.052 0 00-1.454-.05l-3.324 3.101-1.402-1.426a1.06 1.06 0 00-1.453-.05 1.047 1.047 0 000 1.476l2.129 2.137c.183.2.449.312.726.305a1.05 1.05 0 00.727-.305l4.05-3.766a.947.947 0 00.06-1.363c-.016-.02-.04-.04-.06-.059zm14.906 2.188H35.145c-.575 0-1.04.453-1.04 1.015 0 .563.465 1.016 1.04 1.016H47.09c.574 0 1.039-.453 1.039-1.015 0-.563-.465-1.016-1.04-1.016zM32.184 14.598a1.052 1.052 0 00-1.454-.051l-3.324 3.101-1.402-1.421a1.052 1.052 0 00-1.453-.051 1.042 1.042 0 000 1.472l2.129 2.137a.94.94 0 00.726.305 1.05 1.05 0 00.727-.305l4.05-3.762a.952.952 0 00.06-1.367c-.016-.02-.04-.039-.06-.058zm14.906 2.187H35.145c-.575 0-1.04.453-1.04 1.016 0 .562.465 1.015 1.04 1.015H47.09c.574 0 1.039-.453 1.039-1.015 0-.563-.465-1.016-1.04-1.016zM32.184 30.871a1.052 1.052 0 00-1.454-.05l-3.324 3.1-1.402-1.425a1.056 1.056 0 00-1.453-.05 1.047 1.047 0 000 1.476l2.129 2.137a.951.951 0 00.726.304 1.05 1.05 0 00.727-.304l4.05-3.766a.947.947 0 00.06-1.363c-.016-.02-.04-.04-.06-.059zm14.906 2.188H35.145c-.575 0-1.04.453-1.04 1.015 0 .563.465 1.016 1.04 1.016H47.09c.574 0 1.039-.453 1.039-1.016 0-.562-.465-1.015-1.04-1.015zM19.57 44.723a.844.844 0 000 1.191.837.837 0 001.192 0 .844.844 0 000-1.191.837.837 0 00-1.192 0zm0 0"/><g clip-path="url(#clip1)"><path d="M41.16 43.254L34.766 37.8c-.028-.028-.059-.047-.094-.07a4.173 4.173 0 00-5.234.578l-3.485 3.496a.843.843 0 01-.918.183c-3.933-1.633-7.164-4.093-9.605-7.308-1.864-2.453-2.532-4.403-2.621-4.676a.993.993 0 00-.051-.176.843.843 0 01.183-.918l3.485-3.496A4.21 4.21 0 0017 20.16c-.008-.015-.02-.027-.027-.043l-4.618-6.433a4.199 4.199 0 00-6.511-.7l-.7.7v.004l-2.492 2.5c-2.968 2.98-3.457 7.46-1.406 12.957C3.004 33.852 6.523 39 11.152 43.648 15.895 48.406 21.164 52 26 53.773c4.781 1.754 9.871 1.97 13.473-1.644l2.351-2.36c1.887-1.894 1.559-5.05-.664-6.515zm-7.437-4.125l6.386 5.45c.032.023.063.046.094.066a2.54 2.54 0 01.43 3.93l-.176.175-10.89-8.184 1.062-1.062a2.498 2.498 0 013.094-.375zm-22.774-24.52c.012.016.02.028.028.043l4.613 6.434a2.52 2.52 0 01-.356 3.133l-1.03 1.031-7.368-10.871.2-.2a2.519 2.519 0 013.913.43zm15.625 37.578c-4.605-1.69-9.66-5.148-14.23-9.734-4.465-4.48-7.844-9.418-9.52-13.902-1.258-3.367-2.101-8.04 1.02-11.168l1.781-1.79 7.367 10.876-1.242 1.246a2.527 2.527 0 00-.574 2.691c.265 1.094 1.488 3.364 2.719 5.04 1.816 2.46 5.109 5.867 10.5 8.105.945.39 2.023.176 2.75-.551l1.218-1.227 10.89 8.184-.972.977c-3.343 3.355-8.21 2.535-11.707 1.254zm0 0"/></g><path d="M17.992 42.703c-.89-.781-2.43-2.129-3.238-2.965-1.984-2.047-4.07-4.531-5.309-6.324a.84.84 0 00-1.172-.21.845.845 0 00-.21 1.175c1.562 2.262 3.855 4.86 5.484 6.539.855.883 2.406 2.242 3.336 3.055a.838.838 0 001.187-.078.85.85 0 00-.078-1.192zm0 0"/></g></svg>