<svg xmlns="http://www.w3.org/2000/svg" width="52pt" height="55pt" viewBox="0 0 52 55"><path d="M35.656 15.563a.825.825 0 01-.836.824H7.992a.831.831 0 01-.832-.825.82.82 0 01.832-.812H34.82c.473 0 .836.36.836.813zM7.16 10.645c0-.454.375-.813.832-.813h13.426c.45 0 .816.36.816.813a.825.825 0 01-.816.824H7.992a.834.834 0 01-.832-.824zm28.496 9.69a.828.828 0 01-.836.83H7.992a.834.834 0 01-.832-.83c0-.452.375-.812.832-.812H34.82c.473 0 .836.36.836.813zm-21.558 27.5c.457 0 .836.356.836.782 0 .418-.38.778-.836.778H5.512c-2.309 0-4.211-1.782-4.211-3.965V4.48C1.3 2.297 3.188.516 5.51.516h24.743c.91 0 1.762.34 2.406.937l7.863 7.395c.641.609.989 1.406.989 2.246v13.203c0 .441-.36.781-.817.781-.457 0-.832-.34-.832-.781V11.094c0-.074 0-.137-.015-.215h-5.153c-2.304 0-4.191-1.781-4.191-3.95V2.09c-.074-.015-.156-.015-.25-.015H5.512c-1.414 0-2.559 1.078-2.559 2.406v40.95c0 1.328 1.145 2.406 2.559 2.406zM32.152 3.169V6.93c0 1.324 1.149 2.402 2.543 2.402H38.7zM50.82 37.863a1.78 1.78 0 01-.64 2.45l-1.7.996a3.204 3.204 0 01-2.87.222l-1.098.621c.27.313.457.688.566 1.094a2.731 2.731 0 01-.297 2.094c-.695 1.168-2.156 1.637-3.394 1.152-.032.375-.16.766-.36 1.11a2.772 2.772 0 01-3.062 1.265 2.91 2.91 0 01-.38 1.2c-.784 1.292-2.48 1.73-3.784.964l-.012-.011a2.51 2.51 0 01-.363 1.078c-.785 1.308-2.48 1.746-3.785.965l-1.993-1.168c-.91 1.09-2.543 1.308-3.738.464a2.847 2.847 0 01-.957-1.25 2.767 2.767 0 01-2.7-.277 2.832 2.832 0 01-1.116-1.777 2.729 2.729 0 01-2.04-.473 2.856 2.856 0 01-1.117-1.777 2.687 2.687 0 01-2.039-.485 2.72 2.72 0 01-.629-3.824l.743-1.043-.348-.207a3.222 3.222 0 01-1.758.516c-.566 0-1.129-.14-1.648-.453l-1.7-.996a1.767 1.767 0 01-.628-2.45L14.96 26.13c.504-.844 1.621-1.129 2.48-.629l1.696 1a3.23 3.23 0 011.539 3.293l.426.25a2.608 2.608 0 002.226.187l1.586-.609c1.777-.687 2.781-.402 4.461.547.25-.094.172-.063 3.031-.781 1.68-.418 2.7.422 4.051.843a2.564 2.564 0 001.773.016 3.21 3.21 0 011.43-3.746l1.695-1a1.833 1.833 0 012.48.629zm-39.675 2.043c.757.438 1.71.203 2.152-.547l5.543-9.3a1.559 1.559 0 00-.547-2.141l-1.695-1.012c-.078-.031-.176-.02-.223.063L9.387 38.69c-.043.075-.016.168.066.215zm5.328 4.84l1.093-1.531c.348-.5.239-1.188-.265-1.543a1.117 1.117 0 00-1.555.25l-1.098 1.527c-.359.5-.234 1.188.25 1.547a1.144 1.144 0 001.575-.25zm27-1.094a1.042 1.042 0 00-.5-.672c-1.02-.609-9.813-5.792-10.883-6.414-.188.516-.469 1-.88 1.387a3.617 3.617 0 01-2.573 1.067 1.748 1.748 0 01-1.754-1.75v-3.637c0-.922.34-1.778.922-2.438-.895-.418-1.395-.402-2.293-.043l-1.586.606a4.223 4.223 0 01-3.656-.313l-.25-.136-5.184 8.707.375.218a2.77 2.77 0 013.062.11c.332.234.602.531.79.875.921-.953 2.445-1.11 3.578-.313.578.438.988 1.063 1.097 1.778.707-.11 1.43.03 2.043.468 1.035.75 1.414 2.075.989 3.2.39.078.785.234 1.144.484 1.191.855 1.508 2.496.707 3.715l1.856 1.105a1.138 1.138 0 001.539-.386 1.13 1.13 0 00-.395-1.532l-1.601-.933a.815.815 0 01-.282-1.13.823.823 0 011.13-.277l1.585.934 2.18 1.281c.535.313 1.226.14 1.539-.39.316-.532.129-1.2-.39-1.512l-4.067-2.406a.812.812 0 01-.297-1.106.825.825 0 011.129-.297c1.824 1.075 3.484 2.043 5.527 3.246a1.11 1.11 0 001.524-.39 1.102 1.102 0 00-.395-1.516l-5.512-3.246a.827.827 0 01-.296-1.121.821.821 0 011.128-.281c.63.36 6.407 3.761 7.301 4.293a1.136 1.136 0 001.543-.39c.14-.25.188-.548.106-.845zM21.21 49.488c.504.36 1.195.25 1.555-.25l1.289-1.777 1.02-1.422c.359-.5.25-1.187-.25-1.543a1.117 1.117 0 00-1.56.25l-2.304 3.195a1.1 1.1 0 00.25 1.547zm5.227 1.282l.769-1.063c.363-.5.238-1.187-.262-1.543-.492-.363-1.199-.234-1.558.25l-.77 1.074c-.36.485-.234 1.188.27 1.543.484.364 1.191.239 1.55-.261zm-6.829-3.778l2.325-3.199c.171-.25.238-.531.187-.828a1.062 1.062 0 00-.453-.719 1.096 1.096 0 00-.645-.219c-.062 0-.125.02-.187.02a1.13 1.13 0 00-.723.45l-1.21 1.687-1.098 1.511c-.364.5-.254 1.188.254 1.543.5.364 1.191.25 1.55-.246zm29.786-8.3l-6.989-11.723c-.047-.082-.14-.094-.218-.063l-1.696 1.012a1.553 1.553 0 00-.55 2.14l.972 1.637c.238.39.113.89-.281 1.13a.825.825 0 01-1.13-.286L39 31.695a4.218 4.218 0 01-3.156.063c-1.473-.512-2.043-1.028-3.032-.778l-2.746.688a2.022 2.022 0 00-1.535 1.965v3.637a.1.1 0 00.106.105c.531 0 1.039-.2 1.414-.574.676-.672.578-1.512.578-1.563a.825.825 0 011.242-.703l11.211 6.606a2.1 2.1 0 01.426-.286l.719-.417a1.592 1.592 0 01-.153-.235l-2.61-4.371a.813.813 0 01.298-1.121.825.825 0 011.133.293l2.59 4.355c.44.75 1.413.985 2.152.547l1.71-1c.063-.047.094-.14.048-.215zm0 0" fill-rule="evenodd" fill="#292929"/></svg>